<mxfile host="Electron" modified="2023-10-08T12:41:20.576Z" agent="Mozilla/5.0 (X11; Linux x86_64) AppleWebKit/537.36 (KHTML, like Gecko) draw.io/22.0.2 Chrome/114.0.5735.289 Electron/25.8.4 Safari/537.36" etag="UrmfkLGe5yT3ygYEuaNw" version="22.0.2" type="device">
  <diagram name="Page-1" id="2YBvvXClWsGukQMizWep">
    <mxGraphModel dx="1434" dy="781" grid="1" gridSize="10" guides="1" tooltips="1" connect="1" arrows="1" fold="1" page="1" pageScale="1" pageWidth="850" pageHeight="1100" math="0" shadow="0">
      <root>
        <mxCell id="0" />
        <mxCell id="1" parent="0" />
        <mxCell id="Mqo0KjzpIoh4lZvFyHTM-11" value="" style="html=1;points=[[0,0,0,0,5],[0,1,0,0,-5],[1,0,0,0,5],[1,1,0,0,-5]];perimeter=orthogonalPerimeter;outlineConnect=0;targetShapes=umlLifeline;portConstraint=eastwest;newEdgeStyle={&quot;curved&quot;:0,&quot;rounded&quot;:0};fillColor=#000000;" parent="1" vertex="1">
          <mxGeometry x="80" y="240" width="10" height="600" as="geometry" />
        </mxCell>
        <mxCell id="Mqo0KjzpIoh4lZvFyHTM-13" value="Squad" style="shape=umlActor;verticalLabelPosition=bottom;verticalAlign=top;html=1;" parent="1" vertex="1">
          <mxGeometry x="67" y="142" width="40" height="72" as="geometry" />
        </mxCell>
        <mxCell id="Mqo0KjzpIoh4lZvFyHTM-1" value="Interface" style="shape=umlLifeline;perimeter=lifelinePerimeter;whiteSpace=wrap;html=1;container=0;dropTarget=0;collapsible=0;recursiveResize=0;outlineConnect=0;portConstraint=eastwest;newEdgeStyle={&quot;edgeStyle&quot;:&quot;elbowEdgeStyle&quot;,&quot;elbow&quot;:&quot;vertical&quot;,&quot;curved&quot;:0,&quot;rounded&quot;:0};" parent="1" vertex="1">
          <mxGeometry x="331" y="121" width="157.14" height="718" as="geometry" />
        </mxCell>
        <mxCell id="Mqo0KjzpIoh4lZvFyHTM-2" value="" style="html=1;points=[];perimeter=orthogonalPerimeter;outlineConnect=0;targetShapes=umlLifeline;portConstraint=eastwest;newEdgeStyle={&quot;edgeStyle&quot;:&quot;elbowEdgeStyle&quot;,&quot;elbow&quot;:&quot;vertical&quot;,&quot;curved&quot;:0,&quot;rounded&quot;:0};" parent="Mqo0KjzpIoh4lZvFyHTM-1" vertex="1">
          <mxGeometry x="70.71" y="150" width="15.71" height="130" as="geometry" />
        </mxCell>
        <mxCell id="Mqo0KjzpIoh4lZvFyHTM-5" value="Database" style="shape=umlLifeline;perimeter=lifelinePerimeter;whiteSpace=wrap;html=1;container=0;dropTarget=0;collapsible=0;recursiveResize=0;outlineConnect=0;portConstraint=eastwest;newEdgeStyle={&quot;edgeStyle&quot;:&quot;elbowEdgeStyle&quot;,&quot;elbow&quot;:&quot;vertical&quot;,&quot;curved&quot;:0,&quot;rounded&quot;:0};" parent="1" vertex="1">
          <mxGeometry x="608" y="121" width="160" height="717" as="geometry" />
        </mxCell>
        <mxCell id="Mqo0KjzpIoh4lZvFyHTM-6" value="" style="html=1;points=[];perimeter=orthogonalPerimeter;outlineConnect=0;targetShapes=umlLifeline;portConstraint=eastwest;newEdgeStyle={&quot;edgeStyle&quot;:&quot;elbowEdgeStyle&quot;,&quot;elbow&quot;:&quot;vertical&quot;,&quot;curved&quot;:0,&quot;rounded&quot;:0};" parent="Mqo0KjzpIoh4lZvFyHTM-5" vertex="1">
          <mxGeometry x="70.71" y="155.13" width="15.71" height="125.87" as="geometry" />
        </mxCell>
        <mxCell id="Mqo0KjzpIoh4lZvFyHTM-20" value="" style="edgeStyle=none;orthogonalLoop=1;jettySize=auto;html=1;rounded=0;" parent="Mqo0KjzpIoh4lZvFyHTM-5" edge="1">
          <mxGeometry width="100" relative="1" as="geometry">
            <mxPoint x="86.42000000000007" y="193" as="sourcePoint" />
            <mxPoint x="86.42000000000007" y="233" as="targetPoint" />
            <Array as="points">
              <mxPoint x="130" y="193" />
              <mxPoint x="130" y="233" />
            </Array>
          </mxGeometry>
        </mxCell>
        <mxCell id="Mqo0KjzpIoh4lZvFyHTM-22" value="Login&lt;br&gt;Success" style="edgeLabel;html=1;align=center;verticalAlign=middle;resizable=0;points=[];" parent="Mqo0KjzpIoh4lZvFyHTM-20" vertex="1" connectable="0">
          <mxGeometry x="0.0157" y="2" relative="1" as="geometry">
            <mxPoint x="23" as="offset" />
          </mxGeometry>
        </mxCell>
        <mxCell id="XzqE9v-0YKI9uURfEg6D-5" value="Login&lt;br&gt;Success" style="html=1;verticalAlign=bottom;endArrow=open;dashed=1;endSize=8;curved=0;rounded=0;" parent="1" source="Mqo0KjzpIoh4lZvFyHTM-2" edge="1">
          <mxGeometry relative="1" as="geometry">
            <mxPoint x="380" y="386" as="sourcePoint" />
            <mxPoint x="90" y="386" as="targetPoint" />
          </mxGeometry>
        </mxCell>
        <mxCell id="XzqE9v-0YKI9uURfEg6D-6" value="Details&lt;br&gt;Varified" style="html=1;verticalAlign=bottom;endArrow=open;dashed=1;endSize=8;curved=0;rounded=0;" parent="1" source="Mqo0KjzpIoh4lZvFyHTM-6" edge="1">
          <mxGeometry relative="1" as="geometry">
            <mxPoint x="670" y="380" as="sourcePoint" />
            <mxPoint x="417.4200000000001" y="373" as="targetPoint" />
          </mxGeometry>
        </mxCell>
        <mxCell id="XzqE9v-0YKI9uURfEg6D-18" value="Login&lt;br&gt;Request" style="html=1;verticalAlign=bottom;endArrow=block;curved=0;rounded=0;" parent="1" edge="1">
          <mxGeometry width="80" relative="1" as="geometry">
            <mxPoint x="90" y="289" as="sourcePoint" />
            <mxPoint x="401.71000000000004" y="289" as="targetPoint" />
          </mxGeometry>
        </mxCell>
        <mxCell id="XzqE9v-0YKI9uURfEg6D-19" value="Varify&lt;br&gt;Details" style="html=1;verticalAlign=bottom;endArrow=block;curved=0;rounded=0;" parent="1" edge="1">
          <mxGeometry width="80" relative="1" as="geometry">
            <mxPoint x="417.4200000000001" y="300" as="sourcePoint" />
            <mxPoint x="678.71" y="300" as="targetPoint" />
          </mxGeometry>
        </mxCell>
        <mxCell id="XzqE9v-0YKI9uURfEg6D-36" value="" style="html=1;points=[];perimeter=orthogonalPerimeter;outlineConnect=0;targetShapes=umlLifeline;portConstraint=eastwest;newEdgeStyle={&quot;edgeStyle&quot;:&quot;elbowEdgeStyle&quot;,&quot;elbow&quot;:&quot;vertical&quot;,&quot;curved&quot;:0,&quot;rounded&quot;:0};" parent="1" vertex="1">
          <mxGeometry x="402" y="469" width="15.71" height="130" as="geometry" />
        </mxCell>
        <mxCell id="XzqE9v-0YKI9uURfEg6D-37" value="" style="html=1;points=[];perimeter=orthogonalPerimeter;outlineConnect=0;targetShapes=umlLifeline;portConstraint=eastwest;newEdgeStyle={&quot;edgeStyle&quot;:&quot;elbowEdgeStyle&quot;,&quot;elbow&quot;:&quot;vertical&quot;,&quot;curved&quot;:0,&quot;rounded&quot;:0};" parent="1" vertex="1">
          <mxGeometry x="679" y="472.13" width="15.71" height="125.87" as="geometry" />
        </mxCell>
        <mxCell id="XzqE9v-0YKI9uURfEg6D-38" value="" style="edgeStyle=none;orthogonalLoop=1;jettySize=auto;html=1;rounded=0;" parent="1" edge="1">
          <mxGeometry width="100" relative="1" as="geometry">
            <mxPoint x="694.71" y="510" as="sourcePoint" />
            <mxPoint x="694.71" y="550" as="targetPoint" />
            <Array as="points">
              <mxPoint x="738.29" y="510" />
              <mxPoint x="738.29" y="550" />
            </Array>
          </mxGeometry>
        </mxCell>
        <mxCell id="XzqE9v-0YKI9uURfEg6D-39" value="Notification&lt;br&gt;Checked out" style="edgeLabel;html=1;align=center;verticalAlign=middle;resizable=0;points=[];" parent="XzqE9v-0YKI9uURfEg6D-38" vertex="1" connectable="0">
          <mxGeometry x="0.0157" y="2" relative="1" as="geometry">
            <mxPoint x="32" as="offset" />
          </mxGeometry>
        </mxCell>
        <mxCell id="XzqE9v-0YKI9uURfEg6D-40" value="Notification&lt;br&gt;Checked out" style="html=1;verticalAlign=bottom;endArrow=open;dashed=1;endSize=8;curved=0;rounded=0;" parent="1" edge="1">
          <mxGeometry relative="1" as="geometry">
            <mxPoint x="402" y="584" as="sourcePoint" />
            <mxPoint x="90" y="584" as="targetPoint" />
          </mxGeometry>
        </mxCell>
        <mxCell id="XzqE9v-0YKI9uURfEg6D-41" value="Complaint&lt;br&gt;Viewed/Response Viewed" style="html=1;verticalAlign=bottom;endArrow=open;dashed=1;endSize=8;curved=0;rounded=0;" parent="1" edge="1">
          <mxGeometry relative="1" as="geometry">
            <mxPoint x="679" y="571.065" as="sourcePoint" />
            <mxPoint x="417.71000000000004" y="571.065" as="targetPoint" />
          </mxGeometry>
        </mxCell>
        <mxCell id="XzqE9v-0YKI9uURfEg6D-42" value="Request to&lt;br&gt;View Complaint&lt;br&gt;Notification" style="html=1;verticalAlign=bottom;endArrow=block;curved=0;rounded=0;" parent="1" source="Mqo0KjzpIoh4lZvFyHTM-11" edge="1">
          <mxGeometry width="80" relative="1" as="geometry">
            <mxPoint x="100" y="490" as="sourcePoint" />
            <mxPoint x="402.00000000000006" y="486" as="targetPoint" />
          </mxGeometry>
        </mxCell>
        <mxCell id="XzqE9v-0YKI9uURfEg6D-43" value="View/Response View&lt;br&gt;Complaint" style="html=1;verticalAlign=bottom;endArrow=block;curved=0;rounded=0;" parent="1" edge="1">
          <mxGeometry width="80" relative="1" as="geometry">
            <mxPoint x="417.7100000000001" y="497" as="sourcePoint" />
            <mxPoint x="679" y="497" as="targetPoint" />
          </mxGeometry>
        </mxCell>
        <mxCell id="XzqE9v-0YKI9uURfEg6D-44" value="" style="html=1;points=[];perimeter=orthogonalPerimeter;outlineConnect=0;targetShapes=umlLifeline;portConstraint=eastwest;newEdgeStyle={&quot;edgeStyle&quot;:&quot;elbowEdgeStyle&quot;,&quot;elbow&quot;:&quot;vertical&quot;,&quot;curved&quot;:0,&quot;rounded&quot;:0};" parent="1" vertex="1">
          <mxGeometry x="400" y="669" width="15.71" height="130" as="geometry" />
        </mxCell>
        <mxCell id="XzqE9v-0YKI9uURfEg6D-45" value="" style="html=1;points=[];perimeter=orthogonalPerimeter;outlineConnect=0;targetShapes=umlLifeline;portConstraint=eastwest;newEdgeStyle={&quot;edgeStyle&quot;:&quot;elbowEdgeStyle&quot;,&quot;elbow&quot;:&quot;vertical&quot;,&quot;curved&quot;:0,&quot;rounded&quot;:0};" parent="1" vertex="1">
          <mxGeometry x="677" y="673.13" width="15.71" height="125.87" as="geometry" />
        </mxCell>
        <mxCell id="XzqE9v-0YKI9uURfEg6D-46" value="" style="edgeStyle=none;orthogonalLoop=1;jettySize=auto;html=1;rounded=0;" parent="1" edge="1">
          <mxGeometry width="100" relative="1" as="geometry">
            <mxPoint x="692.71" y="711" as="sourcePoint" />
            <mxPoint x="692.71" y="751" as="targetPoint" />
            <Array as="points">
              <mxPoint x="736.29" y="711" />
              <mxPoint x="736.29" y="751" />
            </Array>
          </mxGeometry>
        </mxCell>
        <mxCell id="XzqE9v-0YKI9uURfEg6D-47" value="Response&lt;br&gt;Updated" style="edgeLabel;html=1;align=center;verticalAlign=middle;resizable=0;points=[];" parent="XzqE9v-0YKI9uURfEg6D-46" vertex="1" connectable="0">
          <mxGeometry x="0.0157" y="2" relative="1" as="geometry">
            <mxPoint x="25" as="offset" />
          </mxGeometry>
        </mxCell>
        <mxCell id="XzqE9v-0YKI9uURfEg6D-48" value="Response&lt;br&gt;Updated" style="html=1;verticalAlign=bottom;endArrow=open;dashed=1;endSize=8;curved=0;rounded=0;" parent="1" source="XzqE9v-0YKI9uURfEg6D-44" edge="1">
          <mxGeometry relative="1" as="geometry">
            <mxPoint x="378.29" y="784" as="sourcePoint" />
            <mxPoint x="88.29000000000002" y="784" as="targetPoint" />
          </mxGeometry>
        </mxCell>
        <mxCell id="XzqE9v-0YKI9uURfEg6D-49" value="Response&lt;br&gt;Added" style="html=1;verticalAlign=bottom;endArrow=open;dashed=1;endSize=8;curved=0;rounded=0;" parent="1" source="XzqE9v-0YKI9uURfEg6D-45" edge="1">
          <mxGeometry relative="1" as="geometry">
            <mxPoint x="668.29" y="778" as="sourcePoint" />
            <mxPoint x="415.7100000000001" y="771" as="targetPoint" />
          </mxGeometry>
        </mxCell>
        <mxCell id="XzqE9v-0YKI9uURfEg6D-50" value="Request to&lt;br&gt;Response&lt;br&gt;Complaint" style="html=1;verticalAlign=bottom;endArrow=block;curved=0;rounded=0;" parent="1" edge="1">
          <mxGeometry width="80" relative="1" as="geometry">
            <mxPoint x="88.29000000000002" y="687" as="sourcePoint" />
            <mxPoint x="400.00000000000006" y="687" as="targetPoint" />
          </mxGeometry>
        </mxCell>
        <mxCell id="XzqE9v-0YKI9uURfEg6D-51" value="Add&lt;br&gt;Response" style="html=1;verticalAlign=bottom;endArrow=block;curved=0;rounded=0;" parent="1" edge="1">
          <mxGeometry width="80" relative="1" as="geometry">
            <mxPoint x="415.7100000000001" y="698" as="sourcePoint" />
            <mxPoint x="677" y="698" as="targetPoint" />
          </mxGeometry>
        </mxCell>
      </root>
    </mxGraphModel>
  </diagram>
</mxfile>
